<svg width="28" height="35" viewBox="0 0 28 35" fill="none" xmlns="http://www.w3.org/2000/svg">
<path d="M24.5 7H21C21 3.1325 17.8675 0 14 0C10.1325 0 7 3.1325 7 7H3.5C1.575 7 0 8.575 0 10.5V31.5C0 33.425 1.575 35 3.5 35H24.5C26.425 35 28 33.425 28 31.5V10.5C28 8.575 26.425 7 24.5 7ZM14 3.5C15.925 3.5 17.5 5.075 17.5 7H10.5C10.5 5.075 12.075 3.5 14 3.5ZM24.5 31.5H3.5V10.5H7V14C7 14.9625 7.7875 15.75 8.75 15.75C9.7125 15.75 10.5 14.9625 10.5 14V10.5H17.5V14C17.5 14.9625 18.2875 15.75 19.25 15.75C20.2125 15.75 21 14.9625 21 14V10.5H24.5V31.5Z" fill="black"/>
</svg>
