<svg width="45" height="45" viewBox="0 0 45 45" fill="none" xmlns="http://www.w3.org/2000/svg">
<g clip-path="url(#clip0_300_1012)">
<path d="M26.7188 37.9688H37.9688C39.3589 37.9688 40.5402 37.6552 41.521 37.1088L26.7188 28.279V37.9688ZM44.761 32.4914C44.9213 31.7763 45.0029 31.0191 45.0029 30.2337V26.718H35.0818L44.7582 32.4914M0.246177 12.4868C0.0795392 13.2349 -0.00300401 13.9992 8.35021e-05 14.7656V18.2812H9.95915L0.246177 12.4868ZM18.2813 7.03125H7.03133C5.6511 7.03125 4.47758 7.34063 3.50094 7.87922L18.2813 16.6964V7.03125ZM3.54594 37.1433C4.51344 37.6664 5.67149 37.9688 7.03133 37.9688H18.2813V28.3528L3.54594 37.1433ZM8.35021e-05 26.7188V30.2344C8.35021e-05 31.0437 0.0858648 31.8234 0.255318 32.5568L10.0421 26.7188H8.35021e-05ZM41.5653 7.91367C40.5767 7.35258 39.3793 7.03125 37.9688 7.03125H26.7188V16.7702L41.5653 7.91367ZM45.0001 18.2812V14.7656C45.0001 13.9964 44.9206 13.2546 44.7666 12.5529L35.1648 18.2812H45.0001Z" fill="#2E3192"/>
<path d="M35.1647 18.2812L44.7666 12.5529C44.3264 10.5391 43.2548 8.87203 41.5652 7.91367L26.7188 16.7702V7.03125H25.3125V19.6875H45V18.2812H35.1647ZM0 25.3125V26.7188H10.042L0.255234 32.5568C0.72 34.5642 1.82391 36.2123 3.54586 37.1433L18.2812 28.3528V37.9688H19.6875V25.3125H0ZM45 25.3125H25.3125V37.9688H26.7188V28.279L41.5209 37.1095C43.2232 36.1617 44.3081 34.5038 44.7581 32.4928L35.0817 26.7188H45V25.3125ZM18.2812 7.03125V16.6964L3.50086 7.87922C1.79227 8.82141 0.700312 10.4766 0.245391 12.4868L9.95906 18.2812H0V19.6875H19.6875V7.03125H18.2812Z" fill="#E6E7E8"/>
<path d="M25.3125 19.6875V7.03125H19.6875V19.6875H0V25.3125H19.6875V37.9688H25.3125V25.3125H45V19.6875H25.3125Z" fill="#BE1E2D"/>
<path d="M15.4252 18.2813L1.3275 9.86556C1.02445 10.3156 0.781172 10.8106 0.580078 11.3379L12.2147 18.2813H15.423M44.3602 33.8133L32.5385 26.7188H29.2648L43.5473 35.3102C43.8785 34.8474 44.1515 34.3456 44.3602 33.8161M42.693 8.71243L26.697 18.2813L29.9447 18.2834L43.7477 10.0195C43.4398 9.45915 43.1149 9.09775 42.693 8.71243ZM1.27477 35.0684C1.59105 35.5501 1.97168 35.9863 2.40609 36.3649L18.3255 26.7188H15.1172L1.27477 35.0684Z" fill="#BE1E2D"/>
</g>
<defs>
<clipPath id="clip0_300_1012">
<rect width="45" height="45" fill="white"/>
</clipPath>
</defs>
</svg>
