<svg width="28" height="21" viewBox="0 0 28 21" fill="none" xmlns="http://www.w3.org/2000/svg">
<path d="M1.75 17.5C0.783502 17.5 0 18.2835 0 19.25C0 20.2165 0.783502 21 1.75 21H26.25C27.2165 21 28 20.2165 28 19.25C28 18.2835 27.2165 17.5 26.25 17.5H1.75ZM1.75 8.75C0.783502 8.75 0 9.5335 0 10.5C0 11.4665 0.783502 12.25 1.75 12.25H26.25C27.2165 12.25 28 11.4665 28 10.5C28 9.5335 27.2165 8.75 26.25 8.75H1.75ZM1.75 0C0.783502 0 0 0.783502 0 1.75C0 2.7165 0.783502 3.5 1.75 3.5H26.25C27.2165 3.5 28 2.7165 28 1.75C28 0.783502 27.2165 0 26.25 0H1.75Z" fill="black"/>
</svg>
