<svg width="56" height="56" viewBox="0 0 56 56" fill="none" xmlns="http://www.w3.org/2000/svg">
<path d="M36.5878 33.1572H34.781L34.1407 32.5397C36.4594 29.8503 37.7338 26.4167 37.7313 22.8656C37.7313 19.9255 36.8594 17.0514 35.226 14.6067C33.5925 12.1621 31.2708 10.2567 28.5545 9.13159C25.8381 8.00644 22.8491 7.71205 19.9655 8.28565C17.0818 8.85924 14.433 10.2751 12.354 12.354C10.2751 14.433 8.85924 17.0818 8.28565 19.9655C7.71205 22.8491 8.00644 25.8381 9.13159 28.5545C10.2567 31.2708 12.1621 33.5925 14.6067 35.226C17.0514 36.8594 19.9255 37.7313 22.8656 37.7313C26.5477 37.7313 29.9325 36.3819 32.5397 34.1407L33.1572 34.781V36.5878L44.5923 48L48 44.5923L36.5878 33.1572ZM22.8656 33.1572C17.171 33.1572 12.574 28.5603 12.574 22.8656C12.574 17.171 17.171 12.574 22.8656 12.574C28.5603 12.574 33.1572 17.171 33.1572 22.8656C33.1572 28.5603 28.5603 33.1572 22.8656 33.1572Z" fill="black"/>
</svg>
